<svg fill="none" viewBox="0 0 97 18" xmlns="http://www.w3.org/2000/svg" xmlns:xlink="http://www.w3.org/1999/xlink"><clipPath id="a"><path d="m0 0h97v17.998h-97z"/></clipPath><g clip-path="url(#a)" fill="#767672"><path d="m9.01797 0c.38648.0505208.776.0843707 1.15893.155605.6512.12125 1.2873.287967 1.8855.594628.8942.458227 1.4514 1.168047 1.6995 2.133497.2187.85178.2622 1.71165.0545 2.56696-.2561 1.05235-.9599 1.7647-1.8526 2.31588-.1278.07881-.2601.15156-.4168.23896.1673.06113.3102.11165.4522.16571 1.505.57291 2.3457 1.70457 2.6529 3.24296.2611 1.3064.0959 2.5644-.6255 3.7138-.5759.9179-1.4393 1.4716-2.4295 1.8404-1.0686.3986-2.18052.5674-3.32078.5674-2.75843 0-5.51721.0025-8.27632.0076v-17.5434zm-5.11827 9.73587v4.88283h.23695c1.22513 0 2.45026.0091 3.67488-.005.41608.0005.8313-.0377 1.24029-.1142.92705-.1854 1.55248-.7154 1.75918-1.6748.1017-.4839.0857-.9851-.0465-1.4616-.1819-.688-.5926-1.1892-1.28073-1.4014-.38143-.11771-.7861-.2137-1.18219-.22179-1.4262-.02778-2.85392-.01414-4.28113-.01566-.03638.00152-.07275.00758-.12075.01162zm.00303-6.74099v4.12502c.04699.00253.07781.00606.10863.00606 1.29383 0 2.58767.00304 3.88151-.0106.27735-.00321.55312-.04226.82046-.1162.64262-.17733 1.17309-.50521 1.36407-1.20139.1108-.42265.1304-.86403.0576-1.29485-.094-.60625-.43551-1.01041-.99174-1.26302-.43802-.19602-.89624-.24603-1.36406-.24654h-3.87343z"/><path d="m33.6084-.00188653c-.003.05658333-.0086.11316553-.0086.16974953v6.231747.22128c.0571-.04597.0909-.06113.1061-.0874.6512-1.12106 1.6899-1.68942 2.9054-1.92535 1.2034-.23341 2.3917-.1167 3.486.49409.9836.54714 1.4823 1.44439 1.6838 2.50685.1213.63291.1857 1.2754.1925 1.91979.0212 2.63263.0096 5.26523.0101 7.89843 0 .0551-.006.1101-.0101.1753h-3.4859v-.2354c0-2.2792 0-4.5585 0-6.838 0-.64517-.0419-1.28628-.2572-1.90364-.3031-.86492-.8674-1.29334-1.7854-1.30496-.3524-.0056-.7044.02829-1.0493.10104-.7735.16622-1.2736.65678-1.5257 1.40196-.1829.5656-.2726 1.15716-.2658 1.7516-.0064 2.2603-.0089 4.5206-.0075 6.7809v.2404h-3.5062v-.2697c0-5.6951 0-11.39013 0-17.085176 0-.081843-.0055-.1636865-.0086-.24553025z"/><path d="m90.4441 18c-.3678-.0506-.7381-.0859-1.1023-.1516-1.837-.34-3.2571-1.2964-4.1781-2.9302-.5739-1.0165-.8169-2.1381-.8533-3.3026-.0389-1.2327.1137-2.43052.6669-3.55259.9452-1.91676 2.4659-3.07015 4.5731-3.43997 1.1044-.194 2.2083-.18894 3.2733.17935 1.5025.51835 2.5892 1.52876 3.301 2.94688.4683.93464.7785 1.91323.8447 2.96203.0063.0432.0162.0858.0298.1273v1.1746c-.0167.1592-.1399.1122-.2304.1122-2.9302.002-5.8604.002-8.7906 0h-.2243c.0007.6298.1512 1.2504.439 1.8107.2931.5729.7422.9689 1.3515 1.171.7757.2672 1.6143.2926 2.4048.0728.7446-.2061 1.3261-.6401 1.6944-1.3267.0783-.146.1546-.1889.3127-.1874.865.0081 1.7304.0035 2.5953.0035h.2289c-.0703.1884-.1289.3537-.1925.5168-.7912 2.0411-2.2366 3.2996-4.412 3.679-.3345.0581-.6734.0894-1.0104.1333zm-2.5508-8.10157h5.6877c-.3804-1.97789-1.263-2.85645-3.2147-2.68266-1.5767.14096-2.4699 1.26606-2.473 2.68266z"/><path d="m22.1662 17.9979c-.3678-.0505-.7381-.0859-1.1024-.1515-1.8379-.3395-3.2571-1.2974-4.1791-2.9302-.535-.9468-.781-1.9906-.8407-3.0768-.0783-1.4307.1066-2.80741.8134-4.08256.9645-1.74095 2.4301-2.78167 4.3827-3.13229 1.1676-.20916 2.3311-.18086 3.4572.21876 1.4555.51632 2.5114 1.50147 3.1909 2.87968.2361.46648.4302.95307.5799 1.45399.1132.39508.1375.82147.1567 1.23622.0247.5401.006 1.0817.006 1.6485h-9.22c.0006.5068.0901 1.0095.2642 1.4853.4132 1.1383 1.2706 1.6637 2.4351 1.7572.5709.0459 1.1352.0151 1.6813-.1819.6947-.2526 1.2246-.6881 1.5596-1.354.014-.0249.0335-.0462.0569-.0625.0235-.0163.0503-.027.0785-.0315.9852-.004 1.9703 0 2.9555 0 .0176.0043.0346.0109.0505.0198-.6174 1.8-1.6298 3.2333-3.5173 3.886-.6137.2154-1.254.3458-1.9031.3875-.0618.007-.1232.0174-.1839.0313zm3.0277-8.09594c-.0667-.49612-.1869-.94929-.4123-1.37114-.2965-.55573-.7199-.97454-1.3287-1.16854-1.0942-.3486-2.4669-.27787-3.4733.90634-.4001.47136-.4279 1.05336-.5173 1.63334z"/><path d="m52.201 16.4786c-.4159.3994-.8984.7232-1.4257.9568-1.1246.4972-2.3078.5735-3.5076.4633-.7586-.0632-1.4893-.3154-2.1254-.7335-.7578-.5017-1.2368-1.1898-1.4182-2.0835-.1687-.8326-.1844-1.6672.1309-2.4624.4547-1.1433 1.3363-1.8112 2.5149-2.1244.9988-.2652 2.0249-.3471 3.0419-.4926.5663-.08082 1.1311-.17984 1.6889-.30615.2137-.05052.4107-.18743.6062-.30312.1956-.11569.2895-.28898.3355-.50521.1516-.71538-.0823-1.38831-.6649-1.7364-.2414-.14946-.513-.2435-.7952-.27534-.4935-.04042-1.0013-.06012-1.4883.01162-.8962.13135-1.4419.74771-1.5737 1.67072-.0152.10559-.0278.1743-.1622.17379-1.0928-.00454-2.185-.00353-3.2773-.00404-.0187 0-.0374-.00606-.1101-.01768.0399-.29352.0591-.59261.1233-.88159.2217-.99981.8391-1.72326 1.6606-2.28657.6992-.47894 1.4878-.73659 2.3184-.8725 1.4797-.24199 2.96-.18541 4.4281.07376.8311.14652 1.5783.49966 2.2002 1.10389.5653.54916.8114 1.21957.8493 1.98243.0187.38447.0096.77045.0106 1.15541.005 2.03958 0 4.07908.0197 6.11858.005.4799.0505.9585.1359 1.4308.0662.3657.2218.7148.34 1.0786-.0299.0054-.0601.0083-.0905.0086-1.0796 0-2.1597 0-3.2393.004-.1375 0-.2213-.044-.2562-.1672-.0929-.3213-.1798-.6477-.2698-.9801zm-.1232-5.0491-.0657-.0288c-.434.3471-.9599.4365-1.4788.5345-.6926.1309-1.3918.2299-2.0794.3825-.9094.2021-1.3843.8467-1.3555 1.7722.0088.3014.1121.5923.2953.8317.1833.2393.4372.415.7258.5021.6178.1925 1.2443.1778 1.8728.0874.3511-.0505.6951-.1344.9876-.3506.5861-.4325.9705-.9877 1.0105-1.7354.0368-.6649.0591-1.3302.0874-1.9956z"/><path d="m69.4146 17.6082h-3.5026v-.2526c0-2.2603 0-4.5204 0-6.7804 0-.65117-.0324-1.29986-.2476-1.9243-.3137-.90937-.8982-1.34183-1.8622-1.38326-.8048-.03435-1.5257.16217-2.1102.74468-.4613.46075-.6432 1.05083-.7194 1.67224-.0573.48234-.0863.96774-.0869 1.45344-.0091 2.1022-.0036 4.2044-.0041 6.3071v.2364h-3.491v-12.82976h3.443v1.75256l.0642.03638c.0151-.03385.0278-.06921.046-.10104.6027-1.03265 1.5424-1.58989 2.6705-1.85917 1.2327-.29403 2.4432-.20916 3.6122.29656.7356.31828 1.2221.88816 1.5803 1.59039.3507.69515.5446 1.45881.5679 2.23707.0249.6305.0374 1.26151.0374 1.89301.0047 2.2229.0047 4.4458 0 6.6687z"/><path d="m83.1638 9.39166h-3.4158c-.0333-.18035-.0596-.3597-.101-.53552-.2147-.9311-.7795-1.49642-1.7293-1.6788-1.2817-.24604-2.324.20915-3.007 1.31859-.2688.43701-.4229.91443-.5315 1.40852-.1758.79975-.1309 1.60505-.044 2.41185.0691.7132.3346 1.3933.7669 1.9648.7169.9472 1.7026 1.2312 2.9434.9331 1.0458-.2526 1.744-1.0806 1.9036-2.186.0131-.094.0278-.187.044-.2951h3.3849c-.09.388-.1582.7705-.2678 1.1408-.6568 2.2345-2.182 3.5127-4.4428 3.929-1.5202.2799-3.01.1515-4.4191-.5244-1.7768-.8498-2.9004-2.2543-3.3126-4.172-.4188-1.9416-.1804-3.8184.8028-5.56895.8189-1.45904 2.0607-2.38054 3.6723-2.79532 1.5712-.40416 3.1232-.28797 4.6267.3006 1.9198.75175 2.9489 2.18705 3.1263 4.23769.0025.03082 0 .06264 0 .11114z"/><path d="m18.7266 1.22266h7.1022v1.68385h-7.1022z"/></g></svg>