<svg fill="none" viewBox="0 0 95 17" xmlns="http://www.w3.org/2000/svg" xmlns:xlink="http://www.w3.org/1999/xlink"><clipPath id="a"><path d="m0 0h95v16.0155h-95z"/></clipPath><g clip-path="url(#a)" fill="#767672"><path d="m79.1369 0v15.8916c-1.5867 0-3.1443.0087-4.7002-.0036-.7791-.0056-1.7357.2129-2.2834-.1535-.5026-.3358-.5773-1.316-.8189-2.0198-1.0882-3.1802-2.1724-6.36161-3.2527-9.54423-.1377-.40384-.2186-.90084-.9306-.59885v12.26008h-3.8777v-15.8317h7.1469c1.3415 4.00361 2.6764 8.00978 4.0435 12.0047.0727.2124.4284.3301.8358.6244v-12.6291z"/><path d="m10.8075 0c1.2049 1.02061 2.3934 2.06118 3.6228 3.0521.4427.35829.6546.71299.6464 1.29956-.0348 2.41691.0098 4.83484-.0394 7.25174-.0082.3885-.2497.8799-.5471 1.1368-1.2463 1.0749-2.4118 2.4666-3.8808 2.9989-1.43775.5205-3.20871.1448-4.83329.1535-1.88459.0072-3.76919 0-5.77611 0v-15.8926zm-6.83972 12.278c1.43725 0 2.79669.0343 4.15307-.0205.4238-.0169.86449-.2252 1.25093-.4314 1.45872-.7796 2.03562-1.98547 1.74842-3.62029-.0829-.47498.0057-.97761-.0179-1.46591-.022-.44888.0783-1.05387-.1699-1.31338-.649-.6787-1.39427-1.56776-2.22038-1.71517-1.53091-.27383-3.1473-.07831-4.74424-.07831z"/><path d="m37.9986 0v3.60642h-8.2647v2.50443h5.6594v3.51429h-5.6502v2.62416h8.213v3.5747h-12.1592v-15.824z"/><path d="m94.9986 15.8916h-12.2017v-15.8916h12.2017v3.62741h-8.28v2.5377h5.6461v3.49075h-5.6507v2.61034h8.2846z"/><path d="m44.9719 0v12.233h7.784v3.6033h-11.5486c-.0292-.0665-.0901-.1407-.0901-.215.0034-5.2074.0101-10.41453.02-15.6213z"/><path d="m22.1381.00153546v15.83016454h-3.9258v-1.0119c0-4.5984-.0012-9.19707-.0035-13.79612 0-.340886-.0512-.681259-.0799-1.02368z"/><path d="m59.6149 0v15.8389h-3.8009c-.0245-.1792-.0726-.3675-.0726-.5559-.0041-4.9515-.0041-9.90305 0-14.85459 0-.142804.0261-.285607.0399-.42841z"/></g></svg>